<svg xmlns="http://www.w3.org/2000/svg" width="48" height="48" fill="none"><path fill="#24AFB5" fill-rule="evenodd" d="M24 48c13.255 0 24-10.745 24-24S37.255 0 24 0 0 10.745 0 24s10.745 24 24 24Z" clip-rule="evenodd"/><path fill="#fff" fill-rule="evenodd" d="M16.552 23.172h14.896a4.966 4.966 0 0 1 4.966 4.966v4.965a4.966 4.966 0 0 1-4.966 4.966H16.552a4.966 4.966 0 0 1-4.966-4.966v-4.965a4.966 4.966 0 0 1 4.966-4.966Z" clip-rule="evenodd" opacity=".4"/><path fill="#fff" fill-rule="evenodd" d="M16.552 16.552h14.896a4.966 4.966 0 0 1 4.966 4.965v4.966a4.966 4.966 0 0 1-4.966 4.965H16.552a4.966 4.966 0 0 1-4.966-4.965v-4.966a4.966 4.966 0 0 1 4.966-4.965Z" clip-rule="evenodd" opacity=".6"/><path fill="#fff" fill-rule="evenodd" d="M16.552 9.931h14.896a4.965 4.965 0 0 1 4.966 4.966v4.965a4.966 4.966 0 0 1-4.966 4.966H16.552a4.966 4.966 0 0 1-4.966-4.966v-4.965a4.966 4.966 0 0 1 4.966-4.966Z" clip-rule="evenodd" opacity=".8"/></svg>
